<svg xmlns="http://www.w3.org/2000/svg" width="135" height="40" viewBox="0 0 135 40" fill="none"><g clip-path="url(#clip0_1906_4350)"><path fill-rule="evenodd" clip-rule="evenodd" d="M129.998 40H5.00184C2.24512 40 0 37.7456 0 35V5C0 2.24439 2.24512 0 5.00184 0H129.998C132.752 0 135 2.24439 135 5V35C135 37.7456 132.752 40 129.998 40Z" fill="white"></path><path fill-rule="evenodd" clip-rule="evenodd" d="M129.998 0.800499C132.31 0.800499 134.203 2.68828 134.203 5V35C134.203 37.3117 132.323 39.1995 129.998 39.1995H5.00184C2.68967 39.1995 0.797215 37.3117 0.797215 35V5C0.797215 2.68828 2.67725 0.800499 5.00184 0.800499H129.998ZM129.998 0H5.00184C2.24512 0 0 2.25436 0 5V35C0 37.7556 2.24512 40 5.00184 40H129.998C132.752 40 135 37.7556 135 35V5C135 2.25436 132.752 0 129.998 0Z" fill="#A6A6A6"></path><path d="M71.1191 13.232C70.2176 13.232 69.4577 12.9153 68.8567 12.2918C68.2606 11.6858 67.9278 10.8504 67.9427 9.99755C67.9427 9.08732 68.2507 8.31675 68.8567 7.70577C69.4552 7.08233 70.2151 6.76562 71.1167 6.76562C72.0082 6.76562 72.7682 7.08233 73.3791 7.70577C73.9851 8.3367 74.2931 9.10727 74.2931 9.99755C74.2831 10.9103 73.9752 11.6808 73.3791 12.2893C72.7806 12.9177 72.0207 13.232 71.1191 13.232ZM44.2946 13.232C43.413 13.232 42.6481 12.9202 42.0222 12.3043C41.4013 11.6908 41.0859 10.9153 41.0859 10C41.0859 9.08483 41.4013 8.30927 42.0222 7.6958C42.6357 7.07984 43.4006 6.76812 44.2946 6.76812C44.7317 6.76812 45.1564 6.8554 45.5637 7.03246C45.9636 7.20453 46.2889 7.43894 46.5298 7.72572L46.5894 7.79804L45.9164 8.46139L45.8468 8.37909C45.4669 7.92523 44.9577 7.70328 44.2847 7.70328C43.6837 7.70328 43.1597 7.91774 42.7275 8.34169C42.2929 8.76812 42.0719 9.32672 42.0719 10.0025C42.0719 10.6783 42.2929 11.2369 42.7275 11.6634C43.1597 12.0873 43.6837 12.3018 44.2847 12.3018C44.9255 12.3018 45.4644 12.0873 45.8841 11.6634C46.1324 11.414 46.2864 11.0649 46.3411 10.6235H44.1829V9.69081H47.2674L47.2798 9.7756C47.3022 9.93271 47.3245 10.0948 47.3245 10.2444C47.3245 11.1048 47.0663 11.8005 46.5546 12.3143C45.9735 12.9227 45.2135 13.232 44.2946 13.232ZM79.9605 13.0998H79.0093L76.0961 8.41899L76.121 9.26188V13.0973H75.1698V6.90029H76.2551L76.2849 6.94767L79.0242 11.3566L78.9993 10.5162V6.90029H79.9605V13.0998ZM63.9716 13.0998H63.008V7.83296H61.3366V6.90029H65.6405V7.83296H63.9691V13.0998H63.9716ZM60.5518 13.0998H59.5906V6.90029H60.5518V13.0998ZM55.1501 13.0998H54.189V7.83296H52.5176V6.90029H56.8215V7.83296H55.1501V13.0998ZM51.9091 13.0898H48.2236V6.90029H51.9091V7.83296H49.1872V9.5337H51.6434V10.4564H49.1872V12.1571H51.9091V13.0898ZM69.562 11.6509C69.9916 12.0823 70.5132 12.2993 71.1191 12.2993C71.7425 12.2993 72.2516 12.0873 72.6763 11.6509C73.0985 11.227 73.3121 10.6709 73.3121 10C73.3121 9.32922 73.0985 8.77061 72.6788 8.34917C72.2491 7.91774 71.7251 7.70079 71.1216 7.70079C70.4983 7.70079 69.9891 7.91276 69.5669 8.34917C69.1447 8.77311 68.9312 9.32922 68.9312 10C68.9312 10.6709 69.1423 11.2295 69.562 11.6509Z" fill="black"></path><path fill-rule="evenodd" clip-rule="evenodd" d="M67.8528 21.7557C65.5059 21.7557 63.6035 23.5437 63.6035 26.01C63.6035 28.4539 65.5183 30.2644 67.8528 30.2644C70.1998 30.2644 72.1021 28.4639 72.1021 26.01C72.1021 23.5437 70.1998 21.7557 67.8528 21.7557ZM67.8528 28.5786C66.5688 28.5786 65.4636 27.5113 65.4636 26.0001C65.4636 24.4664 66.5713 23.4215 67.8528 23.4215C69.1368 23.4215 70.242 24.4664 70.242 26.0001C70.2445 27.5212 69.1368 28.5786 67.8528 28.5786ZM58.5818 21.7557C56.2348 21.7557 54.3324 23.5437 54.3324 26.01C54.3324 28.4539 56.2472 30.2644 58.5818 30.2644C60.9287 30.2644 62.8311 28.4639 62.8311 26.01C62.8311 23.5437 60.9262 21.7557 58.5818 21.7557ZM58.5818 28.5786C57.2978 28.5786 56.1926 27.5113 56.1926 26.0001C56.1926 24.4664 57.3003 23.4215 58.5818 23.4215C59.8658 23.4215 60.9709 24.4664 60.9709 26.0001C60.9709 27.5212 59.8658 28.5786 58.5818 28.5786ZM47.5499 23.0549V24.8554H51.8539C51.7222 25.8654 51.3894 26.611 50.8803 27.1222C50.2495 27.7557 49.2759 28.4439 47.5598 28.4439C44.9149 28.4439 42.8461 26.2993 42.8461 23.6434C42.8461 20.9876 44.9149 18.8429 47.5598 18.8429C48.9879 18.8429 50.0285 19.409 50.8008 20.1322L52.0724 18.8554C50.9995 17.823 49.5715 17.0325 47.5698 17.0325C43.9413 17.0325 40.8965 20.0001 40.8965 23.6335C40.8965 27.2769 43.9388 30.2345 47.5698 30.2345C49.5293 30.2345 50.9995 29.5911 52.1618 28.3791C53.3465 27.1896 53.7215 25.5113 53.7215 24.1572C53.7215 23.7357 53.6892 23.3567 53.6221 23.035H47.5474C47.5499 23.0325 47.5499 23.0549 47.5499 23.0549ZM92.6733 24.4564C92.3181 23.5013 91.2453 21.7457 89.0448 21.7457C86.8643 21.7457 85.0513 23.4689 85.0513 26.0001C85.0513 28.3891 86.8444 30.2544 89.2559 30.2544C91.1931 30.2544 92.3206 29.0649 92.7851 28.3666L91.3471 27.3991C90.8702 28.1098 90.2071 28.5761 89.2659 28.5761C88.3147 28.5761 87.6491 28.1422 87.207 27.2868L92.872 24.9302C92.872 24.9327 92.6733 24.4564 92.6733 24.4564ZM86.8966 25.8779C86.8519 24.2345 88.1682 23.3991 89.1094 23.3991C89.852 23.3991 90.4704 23.7656 90.6815 24.2993L86.8966 25.8779ZM82.2946 30.0001H84.1548V17.5013H82.2946V30.0001ZM79.2398 22.7008H79.1728C78.7531 22.1996 77.9558 21.7457 76.9376 21.7457C74.8241 21.7457 72.877 23.6135 72.877 26.0125C72.877 28.4015 74.8142 30.2469 76.9376 30.2469C77.9434 30.2469 78.7531 29.7906 79.1728 29.2794H79.2398V29.8903C79.2398 31.5138 78.3756 32.3891 76.9823 32.3891C75.8424 32.3891 75.1345 31.5661 74.8465 30.8779L73.2297 31.5562C73.6941 32.6784 74.9334 34.0674 76.9798 34.0674C79.1604 34.0674 81.0081 32.7781 81.0081 29.6335V22.0001H79.2498V22.7008C79.2523 22.7008 79.2398 22.7008 79.2398 22.7008ZM77.104 28.5786C75.82 28.5786 74.7471 27.5013 74.7471 26.0125C74.7471 24.5113 75.82 23.424 77.104 23.424C78.3756 23.424 79.3615 24.5237 79.3615 26.0125C79.3739 27.5013 78.378 28.5786 77.104 28.5786ZM101.383 17.5013H96.935V30.0001H98.7952V25.2669H101.386C103.444 25.2669 105.468 23.7681 105.468 21.3891C105.468 19.01 103.452 17.5013 101.383 17.5013ZM101.438 23.5212H98.7927V19.232H101.438C102.831 19.232 103.618 20.3866 103.618 21.3766C103.618 22.3567 102.821 23.5212 101.438 23.5212ZM112.924 21.7332C111.573 21.7332 110.18 22.3342 109.604 23.6434L111.253 24.3317C111.608 23.6434 112.258 23.409 112.946 23.409C113.91 23.409 114.884 23.9876 114.906 25.02V25.1522C114.573 24.9626 113.843 24.6734 112.969 24.6734C111.188 24.6734 109.383 25.6509 109.383 27.4838C109.383 29.1621 110.843 30.2395 112.47 30.2395C113.719 30.2395 114.407 29.6734 114.836 29.0175H114.903V29.9851H116.697V25.1971C116.697 22.9676 115.047 21.7332 112.924 21.7332ZM112.691 28.5786C112.082 28.5786 111.23 28.2794 111.23 27.5113C111.23 26.5437 112.293 26.1771 113.2 26.1771C114.019 26.1771 114.407 26.3542 114.894 26.5986C114.759 27.7207 113.816 28.5686 112.691 28.5786ZM123.238 22.0001L121.102 27.4215H121.035L118.822 22.0001H116.821L120.141 29.5786L118.249 33.7906H120.186L125.295 22.0001H123.238ZM106.494 30.0001H108.354V17.5013H106.494V30.0001Z" fill="black"></path><path fill-rule="evenodd" clip-rule="evenodd" d="M10.392 7.53364C10.1039 7.84536 9.9375 8.32167 9.9375 8.94511V31.0573C9.9375 31.6808 10.1039 32.1571 10.4019 32.4563L10.4789 32.5237L22.8171 20.1346V19.8578L10.469 7.46631L10.392 7.53364Z" fill="url(#paint0_linear_1906_4350)"></path><path fill-rule="evenodd" clip-rule="evenodd" d="M26.9219 24.2768L22.8066 20.1446V19.8553L26.9219 15.7231L27.0113 15.778L31.879 18.5561C33.2723 19.3441 33.2723 20.6458 31.879 21.4438L27.0113 24.2219L26.9219 24.2768Z" fill="url(#paint1_linear_1906_4350)"></path><path fill-rule="evenodd" clip-rule="evenodd" d="M27.0104 24.2219L22.8058 20L10.3906 32.4663C10.8451 32.9551 11.6076 33.01 12.4594 32.5337L27.0104 24.2219Z" fill="url(#paint2_linear_1906_4350)"></path><path fill-rule="evenodd" clip-rule="evenodd" d="M27.0104 15.7779L12.4594 7.47869C11.6076 6.98992 10.8426 7.05725 10.3906 7.54603L22.8058 19.9999L27.0104 15.7779Z" fill="url(#paint3_linear_1906_4350)"></path><path opacity="0.2" fill-rule="evenodd" clip-rule="evenodd" d="M26.921 24.1323L12.4692 32.3767C11.662 32.843 10.9418 32.8106 10.4774 32.3867L10.4004 32.464L10.4774 32.5313C10.9418 32.9527 11.662 32.9877 12.4692 32.5213L27.0203 24.2221L26.921 24.1323Z" fill="black"></path><path opacity="0.12" fill-rule="evenodd" clip-rule="evenodd" d="M31.8778 21.2993L26.9082 24.1322L26.9976 24.2219L31.8653 21.4439C32.5632 21.0449 32.9059 20.5212 32.9059 20C32.8637 20.4788 32.5086 20.9327 31.8778 21.2993Z" fill="black"></path><path opacity="0.25" fill-rule="evenodd" clip-rule="evenodd" d="M12.4608 7.62354L31.8795 18.7008C32.5103 19.0575 32.8655 19.5238 32.9201 20.0001C32.9201 19.4789 32.5774 18.9552 31.8795 18.5562L12.4608 7.4789C11.0675 6.6784 9.9375 7.34673 9.9375 8.94523V9.08987C9.9375 7.48887 11.0675 6.83301 12.4608 7.62354Z" fill="black"></path></g><defs><linearGradient id="paint0_linear_1906_4350" x1="21.7104" y1="8.70654" x2="1.93599" y2="13.9538" gradientUnits="userSpaceOnUse"><stop stop-color="#00A0FF"></stop><stop offset="0.00657" stop-color="#00A1FF"></stop><stop offset="0.2601" stop-color="#00BEFF"></stop><stop offset="0.5122" stop-color="#00D2FF"></stop><stop offset="0.7604" stop-color="#00DFFF"></stop><stop offset="1" stop-color="#00E3FF"></stop></linearGradient><linearGradient id="paint1_linear_1906_4350" x1="33.696" y1="20" x2="9.59826" y2="20" gradientUnits="userSpaceOnUse"><stop stop-color="#FFE000"></stop><stop offset="0.4087" stop-color="#FFBD00"></stop><stop offset="0.7754" stop-color="#FFA500"></stop><stop offset="1" stop-color="#FF9C00"></stop></linearGradient><linearGradient id="paint2_linear_1906_4350" x1="24.7241" y1="22.2973" x2="8.76136" y2="49.0538" gradientUnits="userSpaceOnUse"><stop stop-color="#FF3A44"></stop><stop offset="1" stop-color="#C31162"></stop></linearGradient><linearGradient id="paint3_linear_1906_4350" x1="7.26434" y1="0.178683" x2="14.386" y2="12.1286" gradientUnits="userSpaceOnUse"><stop stop-color="#32A071"></stop><stop offset="0.0685" stop-color="#2DA771"></stop><stop offset="0.4762" stop-color="#15CF74"></stop><stop offset="0.8009" stop-color="#06E775"></stop><stop offset="1" stop-color="#00F076"></stop></linearGradient><clipPath id="clip0_1906_4350"><rect width="135" height="40" fill="white"></rect></clipPath></defs></svg>